<?xml version="1.0" encoding="utf-8"?>
<!-- Generator: Adobe Illustrator 23.0.6, SVG Export Plug-In . SVG Version: 6.00 Build 0)  -->
<svg version="1.1"
	 id="svg2" inkscape:export-filename="G:\Users\suitedoalex\sites\accenture-logo-0.png" inkscape:export-xdpi="561.73999" inkscape:export-ydpi="561.73999" inkscape:version="0.92.4 (5da689c313, 2019-01-14)" sodipodi:docname="accenture-logo.svg" xmlns:cc="http://creativecommons.org/ns#" xmlns:dc="http://purl.org/dc/elements/1.1/" xmlns:inkscape="http://www.inkscape.org/namespaces/inkscape" xmlns:rdf="http://www.w3.org/1999/02/22-rdf-syntax-ns#" xmlns:sodipodi="http://sodipodi.sourceforge.net/DTD/sodipodi-0.dtd" xmlns:svg="http://www.w3.org/2000/svg"
	 xmlns="http://www.w3.org/2000/svg" xmlns:xlink="http://www.w3.org/1999/xlink" x="0px" y="0px" viewBox="0 0 524.4 138.2"
	 style="enable-background:new 0 0 524.4 138.2;" xml:space="preserve">
<style type="text/css">
	.st0{fill:#A100FF;}
</style>
<g>
	<g id="g240">
		<g id="g246" transform="translate(36.5452,493.8657)">
			<path id="path248" inkscape:connector-curvature="0" d="M-16.7-355.6c-10.9,0-19.9-5.5-19.9-17.8v-0.7c0-14.9,13-19.8,28.6-19.8
				h7.5v-2.9c0-6-2.7-9.7-8.9-9.7c-5.7,0-8.7,3.2-9.1,7.9h-16.2c1.2-13.4,11.8-20,26.1-20c14.6,0,25,6.2,25,21.3v40.5H-0.1v-6.9
				C-3-359.5-8.6-355.6-16.7-355.6 M-0.5-377v-5.8h-6.7c-8.3,0-12.6,2.3-12.6,7.7v0.6c0,4.2,2.5,7.1,8.2,7.1
				C-5.8-367.4-0.5-370.7-0.5-377 M54.7-355.6c-16.8,0-28.9-10.4-28.9-30.9v-0.8c0-20.5,13-31.3,29-31.3c13.8,0,25.1,6.9,26.5,22.8
				H65.1c-1-5.9-4-9.7-9.9-9.7C48-405.6,43-399.9,43-388v1.8c0,12.3,4.4,17.8,12.3,17.8c5.8,0,10.1-4.3,11-10.9h15.4
				C80.5-365.5,71.1-355.6,54.7-355.6 M117.6-355.6c-16.8,0-28.9-10.4-28.9-30.9v-0.8c0-20.5,13-31.3,29-31.3
				c13.8,0,25.1,6.9,26.5,22.8h-16.2c-1-5.9-4-9.7-9.9-9.7c-7.2,0-12.1,5.7-12.1,17.6v1.8c0,12.3,4.4,17.8,12.3,17.8
				c5.8,0,10.1-4.3,11-10.9h15.4C143.4-365.5,134.1-355.6,117.6-355.6 M181-355.6c-17.5,0-29.4-10.4-29.4-30.5v-1.2
				c0-20.2,12.6-31.3,28.8-31.3c15,0,27.6,8.4,27.6,28.5v7.3h-39.3c0.7,10.9,5.3,15,12.6,15c6.5,0,9.9-3.5,11.1-7.9h15.6
				C206.3-364.3,196.9-355.6,181-355.6 M169-394.2h22.7c-0.3-8.9-4.4-12.7-11.1-12.7C175.3-406.9,170.4-404,169-394.2 M218.5-417.4
				h16.9v9c3-5.7,9-10.3,18.3-10.3c11,0,18.3,6.6,18.3,21.3v40.5h-16.9v-37.9c0-7.1-2.9-10.2-9-10.2c-5.9,0-10.6,3.6-10.6,11.2v36.9
				h-16.9V-417.4z M303.5-435.7v18.3h11.6v12.6h-11.6v28.7c0,4.5,2.1,6.6,6,6.6c2.4,0,4.3-0.3,5.9-1v13.2c-2,0.6-5.3,1.3-9.5,1.3
				c-13.2,0-19.4-6-19.4-18.3v-30.4h-7.1v-12.6h7.1v-11.3L303.5-435.7z M378.7-356.9h-16.9v-8.9c-2.9,5.8-8.6,10.2-17.6,10.2
				c-10.9,0-18.9-6.6-18.9-20.8v-40.9h17v38.4c0,6.9,2.8,10.2,8.8,10.2c5.9,0,10.6-3.7,10.6-11.2v-37.4h16.9L378.7-356.9z
				 M391-417.4h16.9v11.1c3.6-8.1,9.3-11.9,18.2-11.9v16.7c-11.5,0-18.2,3.5-18.2,13.5v31.1H391V-417.4z M460.7-355.6
				c-17.5,0-29.4-10.4-29.4-30.5v-1.2c0-20.2,12.6-31.3,28.8-31.3c15,0,27.6,8.4,27.6,28.5v7.3h-39.3c0.7,10.9,5.3,15,12.6,15
				c6.5,0,9.9-3.5,11.1-7.9h15.6C486-364.3,476.6-355.6,460.7-355.6 M448.7-394.2h22.7c-0.3-8.9-4.4-12.7-11.1-12.7
				C455-406.9,450.1-404,448.7-394.2"/>
		</g>
	</g>
	
		<g id="g234" transform="matrix(3.6931367,0,0,3.6931367,295.07901,285.35521)" inkscape:export-filename="G:\Users\suitedoalex\sites\accenture-logo-4.png" inkscape:export-xdpi="73.233307" inkscape:export-ydpi="73.233307">
		<path id="path236" inkscape:connector-curvature="0" class="st0" d="M2.9-66.8l8.2-3L2.9-73v-4.2l14,5.6v3.5l-14,5.7V-66.8z"/>
	</g>
</g>
</svg>
